<mxfile host="app.diagrams.net" agent="Mozilla/5.0 (Windows NT 10.0; Win64; x64; rv:133.0) Gecko/20100101 Firefox/133.0" version="25.0.3">
  <diagram name="Page-1" id="vW4e34qA3PSep2_a6WPt">
    <mxGraphModel dx="6363" dy="2720" grid="1" gridSize="10" guides="1" tooltips="1" connect="1" arrows="1" fold="1" page="1" pageScale="1" pageWidth="850" pageHeight="1100" math="0" shadow="0">
      <root>
        <mxCell id="0" />
        <mxCell id="1" parent="0" />
        <mxCell id="tuxZoWLmSPnHSPXejTyS-61" value="" style="shape=folder;fontStyle=1;spacingTop=10;tabWidth=40;tabHeight=14;tabPosition=left;html=1;whiteSpace=wrap;fillColor=none;" vertex="1" parent="1">
          <mxGeometry x="-30" y="-1060" width="1710" height="1000" as="geometry" />
        </mxCell>
        <mxCell id="P_eWGVBI6HkQ4UR9M2wR-1" value="&lt;i&gt;Extractor&lt;/i&gt;" style="swimlane;fontStyle=1;align=center;verticalAlign=top;childLayout=stackLayout;horizontal=1;startSize=26;horizontalStack=0;resizeParent=1;resizeParentMax=0;resizeLast=0;collapsible=1;marginBottom=0;whiteSpace=wrap;html=1;" parent="1" vertex="1">
          <mxGeometry x="-790" y="-970" width="210" height="150" as="geometry" />
        </mxCell>
        <mxCell id="P_eWGVBI6HkQ4UR9M2wR-2" value="# path: String" style="text;strokeColor=none;fillColor=none;align=left;verticalAlign=top;spacingLeft=4;spacingRight=4;overflow=hidden;rotatable=0;points=[[0,0.5],[1,0.5]];portConstraint=eastwest;whiteSpace=wrap;html=1;" parent="P_eWGVBI6HkQ4UR9M2wR-1" vertex="1">
          <mxGeometry y="26" width="210" height="26" as="geometry" />
        </mxCell>
        <mxCell id="P_eWGVBI6HkQ4UR9M2wR-3" value="" style="line;strokeWidth=1;fillColor=none;align=left;verticalAlign=middle;spacingTop=-1;spacingLeft=3;spacingRight=3;rotatable=0;labelPosition=right;points=[];portConstraint=eastwest;strokeColor=inherit;" parent="P_eWGVBI6HkQ4UR9M2wR-1" vertex="1">
          <mxGeometry y="52" width="210" height="8" as="geometry" />
        </mxCell>
        <mxCell id="P_eWGVBI6HkQ4UR9M2wR-4" value="&lt;div&gt;+ getPath(): String&lt;/div&gt;&lt;div&gt;+ extractModel(path: String): Model&lt;/div&gt;&lt;div&gt;&lt;i&gt;+ extractModel(): Model&lt;/i&gt;&lt;/div&gt;&lt;div&gt;+ getModelId(): String&lt;/div&gt;&lt;div&gt;&lt;i&gt;+ getModelType(): ModelType&lt;br&gt;&lt;/i&gt;&lt;/div&gt;" style="text;strokeColor=none;fillColor=none;align=left;verticalAlign=top;spacingLeft=4;spacingRight=4;overflow=hidden;rotatable=0;points=[[0,0.5],[1,0.5]];portConstraint=eastwest;whiteSpace=wrap;html=1;" parent="P_eWGVBI6HkQ4UR9M2wR-1" vertex="1">
          <mxGeometry y="60" width="210" height="90" as="geometry" />
        </mxCell>
        <mxCell id="P_eWGVBI6HkQ4UR9M2wR-10" value="" style="endArrow=block;dashed=0;endFill=0;endSize=12;html=1;rounded=0;exitX=0.5;exitY=0;exitDx=0;exitDy=0;entryX=0.495;entryY=1;entryDx=0;entryDy=0;entryPerimeter=0;" parent="1" source="P_eWGVBI6HkQ4UR9M2wR-12" target="P_eWGVBI6HkQ4UR9M2wR-4" edge="1">
          <mxGeometry width="160" relative="1" as="geometry">
            <mxPoint x="-610" y="-510" as="sourcePoint" />
            <mxPoint x="-460" y="-730" as="targetPoint" />
          </mxGeometry>
        </mxCell>
        <mxCell id="P_eWGVBI6HkQ4UR9M2wR-12" value="&lt;i&gt;CodeExtractor&lt;/i&gt;" style="swimlane;fontStyle=1;align=center;verticalAlign=top;childLayout=stackLayout;horizontal=1;startSize=26;horizontalStack=0;resizeParent=1;resizeParentMax=0;resizeLast=0;collapsible=1;marginBottom=0;whiteSpace=wrap;html=1;" parent="1" vertex="1">
          <mxGeometry x="-820" y="-740" width="270" height="200" as="geometry" />
        </mxCell>
        <mxCell id="P_eWGVBI6HkQ4UR9M2wR-13" value="&lt;div&gt;- logger: Logger&lt;/div&gt;&lt;div&gt;- CODE_MODEL_FILE_NAME: String&lt;/div&gt;&lt;div&gt;# codeItemRepository: CodeItemRepository &lt;br&gt;&lt;/div&gt;" style="text;strokeColor=none;fillColor=none;align=left;verticalAlign=top;spacingLeft=4;spacingRight=4;overflow=hidden;rotatable=0;points=[[0,0.5],[1,0.5]];portConstraint=eastwest;whiteSpace=wrap;html=1;" parent="P_eWGVBI6HkQ4UR9M2wR-12" vertex="1">
          <mxGeometry y="26" width="270" height="54" as="geometry" />
        </mxCell>
        <mxCell id="P_eWGVBI6HkQ4UR9M2wR-14" value="" style="line;strokeWidth=1;fillColor=none;align=left;verticalAlign=middle;spacingTop=-1;spacingLeft=3;spacingRight=3;rotatable=0;labelPosition=right;points=[];portConstraint=eastwest;strokeColor=inherit;" parent="P_eWGVBI6HkQ4UR9M2wR-12" vertex="1">
          <mxGeometry y="80" width="270" height="8" as="geometry" />
        </mxCell>
        <mxCell id="P_eWGVBI6HkQ4UR9M2wR-15" value="&lt;div&gt;&lt;i&gt;+ extractModel(): Model&lt;/i&gt;&lt;br&gt;&lt;/div&gt;&lt;div&gt;+ getModelType(): ModelType&lt;/div&gt;&lt;div&gt;+ writeOutCodeModel(codeModel: CodeModel, path: String)&lt;/div&gt;&lt;div&gt;+ readInCodeModel(File codeModelFile): CodeModel&lt;/div&gt;&lt;div&gt;- getCodeModelFileString(): String&lt;br&gt;&lt;/div&gt;" style="text;strokeColor=none;fillColor=none;align=left;verticalAlign=top;spacingLeft=4;spacingRight=4;overflow=hidden;rotatable=0;points=[[0,0.5],[1,0.5]];portConstraint=eastwest;whiteSpace=wrap;html=1;" parent="P_eWGVBI6HkQ4UR9M2wR-12" vertex="1">
          <mxGeometry y="88" width="270" height="112" as="geometry" />
        </mxCell>
        <mxCell id="P_eWGVBI6HkQ4UR9M2wR-20" value="ClassElement" style="swimlane;fontStyle=1;align=center;verticalAlign=top;childLayout=stackLayout;horizontal=1;startSize=26;horizontalStack=0;resizeParent=1;resizeParentMax=0;resizeLast=0;collapsible=1;marginBottom=0;whiteSpace=wrap;html=1;" parent="1" vertex="1">
          <mxGeometry x="240" y="870" width="230" height="240" as="geometry" />
        </mxCell>
        <mxCell id="P_eWGVBI6HkQ4UR9M2wR-21" value="&lt;div&gt;- imports: List&amp;lt;CodeElement&amp;gt;&lt;/div&gt;&lt;div&gt;- methods: List&amp;lt;ControlElement&amp;gt;&lt;/div&gt;&lt;div&gt;- fields: List&amp;lt;DatatypeElement&amp;gt;&lt;br&gt;&lt;/div&gt;&lt;div&gt;&lt;br&gt;&lt;/div&gt;" style="text;strokeColor=none;fillColor=none;align=left;verticalAlign=top;spacingLeft=4;spacingRight=4;overflow=hidden;rotatable=0;points=[[0,0.5],[1,0.5]];portConstraint=eastwest;whiteSpace=wrap;html=1;" parent="P_eWGVBI6HkQ4UR9M2wR-20" vertex="1">
          <mxGeometry y="26" width="230" height="64" as="geometry" />
        </mxCell>
        <mxCell id="P_eWGVBI6HkQ4UR9M2wR-22" value="" style="line;strokeWidth=1;fillColor=none;align=left;verticalAlign=middle;spacingTop=-1;spacingLeft=3;spacingRight=3;rotatable=0;labelPosition=right;points=[];portConstraint=eastwest;strokeColor=inherit;" parent="P_eWGVBI6HkQ4UR9M2wR-20" vertex="1">
          <mxGeometry y="90" width="230" height="20" as="geometry" />
        </mxCell>
        <mxCell id="P_eWGVBI6HkQ4UR9M2wR-23" value="&lt;div&gt;+ addMethod(method: ControlElement)&lt;/div&gt;&lt;div&gt;+ removeMethod(method: ControlElement)&lt;br&gt;&lt;/div&gt;&lt;div&gt;+ addField(field: DatatypeElement)&lt;/div&gt;&lt;div&gt;+ removeField(field: DatatypeElement)&lt;br&gt;&lt;/div&gt;&lt;div&gt;+ getMethods(): List&amp;lt;ControlElement&amp;gt;&lt;/div&gt;&lt;div&gt;+ getFields(): List&amp;lt;DatatypeElement&amp;gt;&lt;/div&gt;&lt;div&gt;+ getImports(): List&amp;lt;CodeElement&amp;gt;&lt;br&gt;&lt;/div&gt;" style="text;strokeColor=none;fillColor=none;align=left;verticalAlign=top;spacingLeft=4;spacingRight=4;overflow=hidden;rotatable=0;points=[[0,0.5],[1,0.5]];portConstraint=eastwest;whiteSpace=wrap;html=1;" parent="P_eWGVBI6HkQ4UR9M2wR-20" vertex="1">
          <mxGeometry y="110" width="230" height="130" as="geometry" />
        </mxCell>
        <mxCell id="P_eWGVBI6HkQ4UR9M2wR-32" value="CompilationUnitElement" style="swimlane;fontStyle=1;align=center;verticalAlign=top;childLayout=stackLayout;horizontal=1;startSize=26;horizontalStack=0;resizeParent=1;resizeParentMax=0;resizeLast=0;collapsible=1;marginBottom=0;whiteSpace=wrap;html=1;" parent="1" vertex="1">
          <mxGeometry x="-30" y="740" width="250" height="160" as="geometry" />
        </mxCell>
        <mxCell id="P_eWGVBI6HkQ4UR9M2wR-33" value="&lt;div&gt;- classes: List&amp;lt;ClassElement&amp;gt;&lt;/div&gt;&lt;div&gt;- inPackage: CodeElement&lt;br&gt;&lt;/div&gt;" style="text;strokeColor=none;fillColor=none;align=left;verticalAlign=top;spacingLeft=4;spacingRight=4;overflow=hidden;rotatable=0;points=[[0,0.5],[1,0.5]];portConstraint=eastwest;whiteSpace=wrap;html=1;" parent="P_eWGVBI6HkQ4UR9M2wR-32" vertex="1">
          <mxGeometry y="26" width="250" height="44" as="geometry" />
        </mxCell>
        <mxCell id="P_eWGVBI6HkQ4UR9M2wR-34" value="" style="line;strokeWidth=1;fillColor=none;align=left;verticalAlign=middle;spacingTop=-1;spacingLeft=3;spacingRight=3;rotatable=0;labelPosition=right;points=[];portConstraint=eastwest;strokeColor=inherit;" parent="P_eWGVBI6HkQ4UR9M2wR-32" vertex="1">
          <mxGeometry y="70" width="250" height="8" as="geometry" />
        </mxCell>
        <mxCell id="P_eWGVBI6HkQ4UR9M2wR-35" value="&lt;div&gt;+ getPackage(): CodeElement&lt;/div&gt;&lt;div&gt;+ setPackage(package: CodeElement)&lt;br&gt;&lt;/div&gt;&lt;div&gt;+ addClass(class:ClassElement)&lt;/div&gt;&lt;div&gt;+ removeClass(class:ClassElement)&lt;br&gt;&lt;/div&gt;&lt;div&gt;+ getClasses(): List&amp;lt;ClassElement&amp;gt;&lt;/div&gt;&lt;div&gt;&lt;br&gt;&lt;/div&gt;" style="text;strokeColor=none;fillColor=none;align=left;verticalAlign=top;spacingLeft=4;spacingRight=4;overflow=hidden;rotatable=0;points=[[0,0.5],[1,0.5]];portConstraint=eastwest;whiteSpace=wrap;html=1;" parent="P_eWGVBI6HkQ4UR9M2wR-32" vertex="1">
          <mxGeometry y="78" width="250" height="82" as="geometry" />
        </mxCell>
        <mxCell id="P_eWGVBI6HkQ4UR9M2wR-36" value="ControlElement" style="swimlane;fontStyle=1;align=center;verticalAlign=top;childLayout=stackLayout;horizontal=1;startSize=26;horizontalStack=0;resizeParent=1;resizeParentMax=0;resizeLast=0;collapsible=1;marginBottom=0;whiteSpace=wrap;html=1;" parent="1" vertex="1">
          <mxGeometry x="540" y="870" width="160" height="140" as="geometry" />
        </mxCell>
        <mxCell id="P_eWGVBI6HkQ4UR9M2wR-37" value="&lt;div&gt;- returnType: CodeElement&lt;br&gt;&lt;/div&gt;&lt;div&gt;- parameters: List&amp;lt;CodeElement&amp;gt;&lt;br&gt;&lt;/div&gt;" style="text;strokeColor=none;fillColor=none;align=left;verticalAlign=top;spacingLeft=4;spacingRight=4;overflow=hidden;rotatable=0;points=[[0,0.5],[1,0.5]];portConstraint=eastwest;whiteSpace=wrap;html=1;" parent="P_eWGVBI6HkQ4UR9M2wR-36" vertex="1">
          <mxGeometry y="26" width="160" height="44" as="geometry" />
        </mxCell>
        <mxCell id="P_eWGVBI6HkQ4UR9M2wR-38" value="" style="line;strokeWidth=1;fillColor=none;align=left;verticalAlign=middle;spacingTop=-1;spacingLeft=3;spacingRight=3;rotatable=0;labelPosition=right;points=[];portConstraint=eastwest;strokeColor=inherit;" parent="P_eWGVBI6HkQ4UR9M2wR-36" vertex="1">
          <mxGeometry y="70" width="160" height="18" as="geometry" />
        </mxCell>
        <mxCell id="P_eWGVBI6HkQ4UR9M2wR-39" value="&lt;div&gt;+ getReturnType(): CodeElement&lt;/div&gt;&lt;div&gt;+ getParameters():List&amp;lt;CodeElement&amp;gt;&lt;br&gt;&lt;/div&gt;" style="text;strokeColor=none;fillColor=none;align=left;verticalAlign=top;spacingLeft=4;spacingRight=4;overflow=hidden;rotatable=0;points=[[0,0.5],[1,0.5]];portConstraint=eastwest;whiteSpace=wrap;html=1;" parent="P_eWGVBI6HkQ4UR9M2wR-36" vertex="1">
          <mxGeometry y="88" width="160" height="52" as="geometry" />
        </mxCell>
        <mxCell id="P_eWGVBI6HkQ4UR9M2wR-41" value="" style="endArrow=block;dashed=0;endFill=0;endSize=12;html=1;rounded=0;exitX=0.5;exitY=0;exitDx=0;exitDy=0;entryX=0.5;entryY=1;entryDx=0;entryDy=0;" parent="1" source="P_eWGVBI6HkQ4UR9M2wR-36" target="P_eWGVBI6HkQ4UR9M2wR-125" edge="1">
          <mxGeometry width="160" relative="1" as="geometry">
            <mxPoint x="140" y="910" as="sourcePoint" />
            <mxPoint x="269.20000000000005" y="720.104" as="targetPoint" />
          </mxGeometry>
        </mxCell>
        <mxCell id="P_eWGVBI6HkQ4UR9M2wR-42" value="DatatypeElement" style="swimlane;fontStyle=1;align=center;verticalAlign=top;childLayout=stackLayout;horizontal=1;startSize=26;horizontalStack=0;resizeParent=1;resizeParentMax=0;resizeLast=0;collapsible=1;marginBottom=0;whiteSpace=wrap;html=1;" parent="1" vertex="1">
          <mxGeometry x="740" y="870" width="160" height="130" as="geometry" />
        </mxCell>
        <mxCell id="P_eWGVBI6HkQ4UR9M2wR-43" value="&lt;div&gt;- type: CodeElement&lt;/div&gt;&lt;div&gt;&lt;br&gt;&lt;/div&gt;" style="text;strokeColor=none;fillColor=none;align=left;verticalAlign=top;spacingLeft=4;spacingRight=4;overflow=hidden;rotatable=0;points=[[0,0.5],[1,0.5]];portConstraint=eastwest;whiteSpace=wrap;html=1;" parent="P_eWGVBI6HkQ4UR9M2wR-42" vertex="1">
          <mxGeometry y="26" width="160" height="44" as="geometry" />
        </mxCell>
        <mxCell id="P_eWGVBI6HkQ4UR9M2wR-44" value="" style="line;strokeWidth=1;fillColor=none;align=left;verticalAlign=middle;spacingTop=-1;spacingLeft=3;spacingRight=3;rotatable=0;labelPosition=right;points=[];portConstraint=eastwest;strokeColor=inherit;" parent="P_eWGVBI6HkQ4UR9M2wR-42" vertex="1">
          <mxGeometry y="70" width="160" height="18" as="geometry" />
        </mxCell>
        <mxCell id="P_eWGVBI6HkQ4UR9M2wR-45" value="&lt;div&gt;+ getType(): CodeElement&lt;br&gt;&lt;/div&gt;" style="text;strokeColor=none;fillColor=none;align=left;verticalAlign=top;spacingLeft=4;spacingRight=4;overflow=hidden;rotatable=0;points=[[0,0.5],[1,0.5]];portConstraint=eastwest;whiteSpace=wrap;html=1;" parent="P_eWGVBI6HkQ4UR9M2wR-42" vertex="1">
          <mxGeometry y="88" width="160" height="42" as="geometry" />
        </mxCell>
        <mxCell id="P_eWGVBI6HkQ4UR9M2wR-46" value="" style="endArrow=block;dashed=0;endFill=0;endSize=12;html=1;rounded=0;exitX=0.5;exitY=0;exitDx=0;exitDy=0;entryX=0.5;entryY=1;entryDx=0;entryDy=0;" parent="1" source="P_eWGVBI6HkQ4UR9M2wR-42" target="P_eWGVBI6HkQ4UR9M2wR-125" edge="1">
          <mxGeometry width="160" relative="1" as="geometry">
            <mxPoint x="620" y="900" as="sourcePoint" />
            <mxPoint x="270" y="720" as="targetPoint" />
          </mxGeometry>
        </mxCell>
        <mxCell id="P_eWGVBI6HkQ4UR9M2wR-61" value="" style="endArrow=block;dashed=0;endFill=0;endSize=12;html=1;rounded=0;exitX=0.5;exitY=0;exitDx=0;exitDy=0;entryX=0.5;entryY=1;entryDx=0;entryDy=0;" parent="1" source="P_eWGVBI6HkQ4UR9M2wR-32" target="P_eWGVBI6HkQ4UR9M2wR-98" edge="1">
          <mxGeometry width="160" relative="1" as="geometry">
            <mxPoint x="290" y="900" as="sourcePoint" />
            <mxPoint x="270.48" y="719.9480000000001" as="targetPoint" />
          </mxGeometry>
        </mxCell>
        <mxCell id="P_eWGVBI6HkQ4UR9M2wR-62" value="" style="endArrow=block;dashed=0;endFill=0;endSize=12;html=1;rounded=0;exitX=0.5;exitY=0;exitDx=0;exitDy=0;entryX=0.5;entryY=1;entryDx=0;entryDy=0;" parent="1" source="P_eWGVBI6HkQ4UR9M2wR-20" target="P_eWGVBI6HkQ4UR9M2wR-125" edge="1">
          <mxGeometry width="160" relative="1" as="geometry">
            <mxPoint x="155" y="1180" as="sourcePoint" />
            <mxPoint x="269.52" y="719.9480000000001" as="targetPoint" />
          </mxGeometry>
        </mxCell>
        <mxCell id="P_eWGVBI6HkQ4UR9M2wR-63" value="JavaVariableExtractor" style="swimlane;fontStyle=1;align=center;verticalAlign=top;childLayout=stackLayout;horizontal=1;startSize=26;horizontalStack=0;resizeParent=1;resizeParentMax=0;resizeLast=0;collapsible=1;marginBottom=0;whiteSpace=wrap;html=1;" parent="1" vertex="1">
          <mxGeometry x="140" y="-530" width="350" height="90" as="geometry" />
        </mxCell>
        <mxCell id="P_eWGVBI6HkQ4UR9M2wR-65" value="" style="line;strokeWidth=1;fillColor=none;align=left;verticalAlign=middle;spacingTop=-1;spacingLeft=3;spacingRight=3;rotatable=0;labelPosition=right;points=[];portConstraint=eastwest;strokeColor=inherit;" parent="P_eWGVBI6HkQ4UR9M2wR-63" vertex="1">
          <mxGeometry y="26" width="350" height="8" as="geometry" />
        </mxCell>
        <mxCell id="P_eWGVBI6HkQ4UR9M2wR-66" value="+ visitVariableDeclarator(JavaParser.VariableDeclaratorContext ctx): DatatypeElement" style="text;strokeColor=none;fillColor=none;align=left;verticalAlign=top;spacingLeft=4;spacingRight=4;overflow=hidden;rotatable=0;points=[[0,0.5],[1,0.5]];portConstraint=eastwest;whiteSpace=wrap;html=1;" parent="P_eWGVBI6HkQ4UR9M2wR-63" vertex="1">
          <mxGeometry y="34" width="350" height="56" as="geometry" />
        </mxCell>
        <mxCell id="P_eWGVBI6HkQ4UR9M2wR-67" value="" style="endArrow=block;dashed=0;endFill=0;endSize=12;html=1;rounded=0;exitX=0.5;exitY=0;exitDx=0;exitDy=0;entryX=0.5;entryY=1;entryDx=0;entryDy=0;" parent="1" source="P_eWGVBI6HkQ4UR9M2wR-63" target="P_eWGVBI6HkQ4UR9M2wR-68" edge="1">
          <mxGeometry width="160" relative="1" as="geometry">
            <mxPoint x="440" y="-420" as="sourcePoint" />
            <mxPoint x="485" y="-620.0519999999999" as="targetPoint" />
          </mxGeometry>
        </mxCell>
        <mxCell id="P_eWGVBI6HkQ4UR9M2wR-68" value="&lt;div&gt;JavaParserBaseVisitor&amp;lt;DatatypeElement&amp;gt;&lt;/div&gt;&lt;div&gt;&lt;br&gt;&lt;/div&gt;" style="swimlane;fontStyle=1;align=center;verticalAlign=top;childLayout=stackLayout;horizontal=1;startSize=26;horizontalStack=0;resizeParent=1;resizeParentMax=0;resizeLast=0;collapsible=1;marginBottom=0;whiteSpace=wrap;html=1;" parent="1" vertex="1">
          <mxGeometry x="370" y="-650" width="230" height="34" as="geometry" />
        </mxCell>
        <mxCell id="P_eWGVBI6HkQ4UR9M2wR-70" value="" style="line;strokeWidth=1;fillColor=none;align=left;verticalAlign=middle;spacingTop=-1;spacingLeft=3;spacingRight=3;rotatable=0;labelPosition=right;points=[];portConstraint=eastwest;strokeColor=inherit;" parent="P_eWGVBI6HkQ4UR9M2wR-68" vertex="1">
          <mxGeometry y="26" width="230" height="8" as="geometry" />
        </mxCell>
        <mxCell id="P_eWGVBI6HkQ4UR9M2wR-80" value="&lt;div&gt;JavaParserBaseVisitor&amp;lt;ClassElement&amp;gt;&lt;/div&gt;&lt;div&gt;&lt;br&gt;&lt;/div&gt;" style="swimlane;fontStyle=1;align=center;verticalAlign=top;childLayout=stackLayout;horizontal=1;startSize=26;horizontalStack=0;resizeParent=1;resizeParentMax=0;resizeLast=0;collapsible=1;marginBottom=0;whiteSpace=wrap;html=1;" parent="1" vertex="1">
          <mxGeometry x="970" y="-660" width="230" height="34" as="geometry" />
        </mxCell>
        <mxCell id="P_eWGVBI6HkQ4UR9M2wR-81" value="" style="line;strokeWidth=1;fillColor=none;align=left;verticalAlign=middle;spacingTop=-1;spacingLeft=3;spacingRight=3;rotatable=0;labelPosition=right;points=[];portConstraint=eastwest;strokeColor=inherit;" parent="P_eWGVBI6HkQ4UR9M2wR-80" vertex="1">
          <mxGeometry y="26" width="230" height="8" as="geometry" />
        </mxCell>
        <mxCell id="P_eWGVBI6HkQ4UR9M2wR-82" value="" style="endArrow=block;dashed=0;endFill=0;endSize=12;html=1;rounded=0;exitX=0.5;exitY=0;exitDx=0;exitDy=0;entryX=0.5;entryY=1;entryDx=0;entryDy=0;" parent="1" source="P_eWGVBI6HkQ4UR9M2wR-83" target="P_eWGVBI6HkQ4UR9M2wR-80" edge="1">
          <mxGeometry width="160" relative="1" as="geometry">
            <mxPoint x="1040" y="-430" as="sourcePoint" />
            <mxPoint x="1085" y="-630.0519999999999" as="targetPoint" />
          </mxGeometry>
        </mxCell>
        <mxCell id="P_eWGVBI6HkQ4UR9M2wR-83" value="JavaClassExtractor" style="swimlane;fontStyle=1;align=center;verticalAlign=top;childLayout=stackLayout;horizontal=1;startSize=26;horizontalStack=0;resizeParent=1;resizeParentMax=0;resizeLast=0;collapsible=1;marginBottom=0;whiteSpace=wrap;html=1;" parent="1" vertex="1">
          <mxGeometry x="910" y="-530" width="350" height="90" as="geometry" />
        </mxCell>
        <mxCell id="P_eWGVBI6HkQ4UR9M2wR-84" value="" style="line;strokeWidth=1;fillColor=none;align=left;verticalAlign=middle;spacingTop=-1;spacingLeft=3;spacingRight=3;rotatable=0;labelPosition=right;points=[];portConstraint=eastwest;strokeColor=inherit;" parent="P_eWGVBI6HkQ4UR9M2wR-83" vertex="1">
          <mxGeometry y="26" width="350" height="8" as="geometry" />
        </mxCell>
        <mxCell id="P_eWGVBI6HkQ4UR9M2wR-85" value="+ visitClassDeclaration(JavaParser.ClassDeclarationContext ctx): ClassElement" style="text;strokeColor=none;fillColor=none;align=left;verticalAlign=top;spacingLeft=4;spacingRight=4;overflow=hidden;rotatable=0;points=[[0,0.5],[1,0.5]];portConstraint=eastwest;whiteSpace=wrap;html=1;" parent="P_eWGVBI6HkQ4UR9M2wR-83" vertex="1">
          <mxGeometry y="34" width="350" height="56" as="geometry" />
        </mxCell>
        <mxCell id="P_eWGVBI6HkQ4UR9M2wR-86" value="&lt;div&gt;JavaParserBaseVisitor&amp;lt;CompilationUnitElement&amp;gt;&lt;/div&gt;&lt;div&gt;&lt;br&gt;&lt;/div&gt;" style="swimlane;fontStyle=1;align=center;verticalAlign=top;childLayout=stackLayout;horizontal=1;startSize=26;horizontalStack=0;resizeParent=1;resizeParentMax=0;resizeLast=0;collapsible=1;marginBottom=0;whiteSpace=wrap;html=1;" parent="1" vertex="1">
          <mxGeometry x="1330" y="-660" width="290" height="34" as="geometry" />
        </mxCell>
        <mxCell id="P_eWGVBI6HkQ4UR9M2wR-87" value="" style="line;strokeWidth=1;fillColor=none;align=left;verticalAlign=middle;spacingTop=-1;spacingLeft=3;spacingRight=3;rotatable=0;labelPosition=right;points=[];portConstraint=eastwest;strokeColor=inherit;" parent="P_eWGVBI6HkQ4UR9M2wR-86" vertex="1">
          <mxGeometry y="26" width="290" height="8" as="geometry" />
        </mxCell>
        <mxCell id="P_eWGVBI6HkQ4UR9M2wR-88" value="" style="endArrow=block;dashed=0;endFill=0;endSize=12;html=1;rounded=0;exitX=0.5;exitY=0;exitDx=0;exitDy=0;entryX=0.5;entryY=1;entryDx=0;entryDy=0;" parent="1" source="P_eWGVBI6HkQ4UR9M2wR-89" target="P_eWGVBI6HkQ4UR9M2wR-86" edge="1">
          <mxGeometry width="160" relative="1" as="geometry">
            <mxPoint x="1430" y="-430" as="sourcePoint" />
            <mxPoint x="1475" y="-630.0519999999999" as="targetPoint" />
          </mxGeometry>
        </mxCell>
        <mxCell id="P_eWGVBI6HkQ4UR9M2wR-89" value="JavaCompilationUnitExtractor" style="swimlane;fontStyle=1;align=center;verticalAlign=top;childLayout=stackLayout;horizontal=1;startSize=26;horizontalStack=0;resizeParent=1;resizeParentMax=0;resizeLast=0;collapsible=1;marginBottom=0;whiteSpace=wrap;html=1;" parent="1" vertex="1">
          <mxGeometry x="1300" y="-530" width="350" height="90" as="geometry" />
        </mxCell>
        <mxCell id="P_eWGVBI6HkQ4UR9M2wR-90" value="" style="line;strokeWidth=1;fillColor=none;align=left;verticalAlign=middle;spacingTop=-1;spacingLeft=3;spacingRight=3;rotatable=0;labelPosition=right;points=[];portConstraint=eastwest;strokeColor=inherit;" parent="P_eWGVBI6HkQ4UR9M2wR-89" vertex="1">
          <mxGeometry y="26" width="350" height="8" as="geometry" />
        </mxCell>
        <mxCell id="P_eWGVBI6HkQ4UR9M2wR-91" value="&lt;div&gt;+ JavaCompilationUnitExtractor(String fileName)&lt;br&gt;&lt;/div&gt;&lt;div&gt;+ visitClassDeclaration(JavaParser.ClassDeclarationContext ctx): CompilationUnitElement&lt;/div&gt;&lt;div&gt;&lt;br&gt;&lt;/div&gt;" style="text;strokeColor=none;fillColor=none;align=left;verticalAlign=top;spacingLeft=4;spacingRight=4;overflow=hidden;rotatable=0;points=[[0,0.5],[1,0.5]];portConstraint=eastwest;whiteSpace=wrap;html=1;" parent="P_eWGVBI6HkQ4UR9M2wR-89" vertex="1">
          <mxGeometry y="34" width="350" height="56" as="geometry" />
        </mxCell>
        <mxCell id="P_eWGVBI6HkQ4UR9M2wR-92" value="&lt;div&gt;JavaParserBaseVisitor&amp;lt;ControlElement&amp;gt;&lt;/div&gt;&lt;div&gt;&lt;br&gt;&lt;/div&gt;" style="swimlane;fontStyle=1;align=center;verticalAlign=top;childLayout=stackLayout;horizontal=1;startSize=26;horizontalStack=0;resizeParent=1;resizeParentMax=0;resizeLast=0;collapsible=1;marginBottom=0;whiteSpace=wrap;html=1;" parent="1" vertex="1">
          <mxGeometry x="200" y="-350" width="230" height="34" as="geometry" />
        </mxCell>
        <mxCell id="P_eWGVBI6HkQ4UR9M2wR-93" value="" style="line;strokeWidth=1;fillColor=none;align=left;verticalAlign=middle;spacingTop=-1;spacingLeft=3;spacingRight=3;rotatable=0;labelPosition=right;points=[];portConstraint=eastwest;strokeColor=inherit;" parent="P_eWGVBI6HkQ4UR9M2wR-92" vertex="1">
          <mxGeometry y="26" width="230" height="8" as="geometry" />
        </mxCell>
        <mxCell id="P_eWGVBI6HkQ4UR9M2wR-94" value="" style="endArrow=block;dashed=0;endFill=0;endSize=12;html=1;rounded=0;exitX=0.5;exitY=0;exitDx=0;exitDy=0;entryX=0.5;entryY=1;entryDx=0;entryDy=0;" parent="1" source="P_eWGVBI6HkQ4UR9M2wR-95" target="P_eWGVBI6HkQ4UR9M2wR-92" edge="1">
          <mxGeometry width="160" relative="1" as="geometry">
            <mxPoint x="270" y="-120" as="sourcePoint" />
            <mxPoint x="315" y="-320.0519999999999" as="targetPoint" />
          </mxGeometry>
        </mxCell>
        <mxCell id="P_eWGVBI6HkQ4UR9M2wR-95" value="JavaMethodExtractor" style="swimlane;fontStyle=1;align=center;verticalAlign=top;childLayout=stackLayout;horizontal=1;startSize=26;horizontalStack=0;resizeParent=1;resizeParentMax=0;resizeLast=0;collapsible=1;marginBottom=0;whiteSpace=wrap;html=1;" parent="1" vertex="1">
          <mxGeometry x="140" y="-220" width="350" height="90" as="geometry" />
        </mxCell>
        <mxCell id="P_eWGVBI6HkQ4UR9M2wR-96" value="" style="line;strokeWidth=1;fillColor=none;align=left;verticalAlign=middle;spacingTop=-1;spacingLeft=3;spacingRight=3;rotatable=0;labelPosition=right;points=[];portConstraint=eastwest;strokeColor=inherit;" parent="P_eWGVBI6HkQ4UR9M2wR-95" vertex="1">
          <mxGeometry y="26" width="350" height="8" as="geometry" />
        </mxCell>
        <mxCell id="P_eWGVBI6HkQ4UR9M2wR-97" value="+ visitMethodExtractor(JavaParser.ClassDeclarationContext ctx): ControlElement" style="text;strokeColor=none;fillColor=none;align=left;verticalAlign=top;spacingLeft=4;spacingRight=4;overflow=hidden;rotatable=0;points=[[0,0.5],[1,0.5]];portConstraint=eastwest;whiteSpace=wrap;html=1;" parent="P_eWGVBI6HkQ4UR9M2wR-95" vertex="1">
          <mxGeometry y="34" width="350" height="56" as="geometry" />
        </mxCell>
        <mxCell id="P_eWGVBI6HkQ4UR9M2wR-98" value="CodeElement" style="swimlane;fontStyle=1;align=center;verticalAlign=top;childLayout=stackLayout;horizontal=1;startSize=26;horizontalStack=0;resizeParent=1;resizeParentMax=0;resizeLast=0;collapsible=1;marginBottom=0;whiteSpace=wrap;html=1;" parent="1" vertex="1">
          <mxGeometry x="280" y="570" width="160" height="86" as="geometry" />
        </mxCell>
        <mxCell id="P_eWGVBI6HkQ4UR9M2wR-99" value="&lt;div&gt;- name: String&lt;/div&gt;" style="text;strokeColor=none;fillColor=none;align=left;verticalAlign=top;spacingLeft=4;spacingRight=4;overflow=hidden;rotatable=0;points=[[0,0.5],[1,0.5]];portConstraint=eastwest;whiteSpace=wrap;html=1;" parent="P_eWGVBI6HkQ4UR9M2wR-98" vertex="1">
          <mxGeometry y="26" width="160" height="26" as="geometry" />
        </mxCell>
        <mxCell id="P_eWGVBI6HkQ4UR9M2wR-100" value="" style="line;strokeWidth=1;fillColor=none;align=left;verticalAlign=middle;spacingTop=-1;spacingLeft=3;spacingRight=3;rotatable=0;labelPosition=right;points=[];portConstraint=eastwest;strokeColor=inherit;" parent="P_eWGVBI6HkQ4UR9M2wR-98" vertex="1">
          <mxGeometry y="52" width="160" height="8" as="geometry" />
        </mxCell>
        <mxCell id="P_eWGVBI6HkQ4UR9M2wR-101" value="+ getName(): String" style="text;strokeColor=none;fillColor=none;align=left;verticalAlign=top;spacingLeft=4;spacingRight=4;overflow=hidden;rotatable=0;points=[[0,0.5],[1,0.5]];portConstraint=eastwest;whiteSpace=wrap;html=1;" parent="P_eWGVBI6HkQ4UR9M2wR-98" vertex="1">
          <mxGeometry y="60" width="160" height="26" as="geometry" />
        </mxCell>
        <mxCell id="P_eWGVBI6HkQ4UR9M2wR-125" value="TreeCodeElement" style="swimlane;fontStyle=1;align=center;verticalAlign=top;childLayout=stackLayout;horizontal=1;startSize=26;horizontalStack=0;resizeParent=1;resizeParentMax=0;resizeLast=0;collapsible=1;marginBottom=0;whiteSpace=wrap;html=1;" parent="1" vertex="1">
          <mxGeometry x="470" y="710" width="160" height="86" as="geometry" />
        </mxCell>
        <mxCell id="P_eWGVBI6HkQ4UR9M2wR-126" value="- parent: Data" style="text;strokeColor=none;fillColor=none;align=left;verticalAlign=top;spacingLeft=4;spacingRight=4;overflow=hidden;rotatable=0;points=[[0,0.5],[1,0.5]];portConstraint=eastwest;whiteSpace=wrap;html=1;" parent="P_eWGVBI6HkQ4UR9M2wR-125" vertex="1">
          <mxGeometry y="26" width="160" height="26" as="geometry" />
        </mxCell>
        <mxCell id="P_eWGVBI6HkQ4UR9M2wR-127" value="" style="line;strokeWidth=1;fillColor=none;align=left;verticalAlign=middle;spacingTop=-1;spacingLeft=3;spacingRight=3;rotatable=0;labelPosition=right;points=[];portConstraint=eastwest;strokeColor=inherit;" parent="P_eWGVBI6HkQ4UR9M2wR-125" vertex="1">
          <mxGeometry y="52" width="160" height="8" as="geometry" />
        </mxCell>
        <mxCell id="P_eWGVBI6HkQ4UR9M2wR-128" value="+ getParent(): Data" style="text;strokeColor=none;fillColor=none;align=left;verticalAlign=top;spacingLeft=4;spacingRight=4;overflow=hidden;rotatable=0;points=[[0,0.5],[1,0.5]];portConstraint=eastwest;whiteSpace=wrap;html=1;" parent="P_eWGVBI6HkQ4UR9M2wR-125" vertex="1">
          <mxGeometry y="60" width="160" height="26" as="geometry" />
        </mxCell>
        <mxCell id="P_eWGVBI6HkQ4UR9M2wR-129" value="" style="endArrow=block;dashed=0;endFill=0;endSize=12;html=1;rounded=0;exitX=0.5;exitY=0;exitDx=0;exitDy=0;entryX=0.505;entryY=1.002;entryDx=0;entryDy=0;entryPerimeter=0;" parent="1" source="P_eWGVBI6HkQ4UR9M2wR-125" target="P_eWGVBI6HkQ4UR9M2wR-101" edge="1">
          <mxGeometry width="160" relative="1" as="geometry">
            <mxPoint x="145" y="770" as="sourcePoint" />
            <mxPoint x="370" y="666" as="targetPoint" />
          </mxGeometry>
        </mxCell>
        <mxCell id="tuxZoWLmSPnHSPXejTyS-1" value="JavaModelMapper" style="swimlane;fontStyle=1;align=center;verticalAlign=top;childLayout=stackLayout;horizontal=1;startSize=26;horizontalStack=0;resizeParent=1;resizeParentMax=0;resizeLast=0;collapsible=1;marginBottom=0;whiteSpace=wrap;html=1;" vertex="1" parent="1">
          <mxGeometry x="930" y="30" width="420" height="170" as="geometry" />
        </mxCell>
        <mxCell id="tuxZoWLmSPnHSPXejTyS-3" value="" style="line;strokeWidth=1;fillColor=none;align=left;verticalAlign=middle;spacingTop=-1;spacingLeft=3;spacingRight=3;rotatable=0;labelPosition=right;points=[];portConstraint=eastwest;strokeColor=inherit;" vertex="1" parent="tuxZoWLmSPnHSPXejTyS-1">
          <mxGeometry y="26" width="420" height="8" as="geometry" />
        </mxCell>
        <mxCell id="tuxZoWLmSPnHSPXejTyS-4" value="&lt;div&gt;+map(List&amp;lt;CodeElement&amp;gt;): Model&lt;br&gt;&lt;/div&gt;&lt;div&gt;- mapCompilationUnit(data: CompilationUnitElement, repository CodeItemRepository)&lt;/div&gt;&lt;div&gt;- mapClassUnit( data: ClassElement, repository: CodeItemRepository)&lt;/div&gt;&lt;div&gt;- mapMethod(data: ControlElement, repository: CodeItemRepository)&lt;/div&gt;&lt;div&gt;-mapField(data: DatatypeElement, repository: CodeItemRepository)&lt;br&gt;&lt;/div&gt;" style="text;strokeColor=none;fillColor=none;align=left;verticalAlign=top;spacingLeft=4;spacingRight=4;overflow=hidden;rotatable=0;points=[[0,0.5],[1,0.5]];portConstraint=eastwest;whiteSpace=wrap;html=1;" vertex="1" parent="tuxZoWLmSPnHSPXejTyS-1">
          <mxGeometry y="34" width="420" height="136" as="geometry" />
        </mxCell>
        <mxCell id="tuxZoWLmSPnHSPXejTyS-6" value="JavaFieldExtractor" style="swimlane;fontStyle=1;align=center;verticalAlign=top;childLayout=stackLayout;horizontal=1;startSize=26;horizontalStack=0;resizeParent=1;resizeParentMax=0;resizeLast=0;collapsible=1;marginBottom=0;whiteSpace=wrap;html=1;" vertex="1" parent="1">
          <mxGeometry x="520" y="-530" width="350" height="90" as="geometry" />
        </mxCell>
        <mxCell id="tuxZoWLmSPnHSPXejTyS-7" value="" style="line;strokeWidth=1;fillColor=none;align=left;verticalAlign=middle;spacingTop=-1;spacingLeft=3;spacingRight=3;rotatable=0;labelPosition=right;points=[];portConstraint=eastwest;strokeColor=inherit;" vertex="1" parent="tuxZoWLmSPnHSPXejTyS-6">
          <mxGeometry y="26" width="350" height="8" as="geometry" />
        </mxCell>
        <mxCell id="tuxZoWLmSPnHSPXejTyS-8" value="+ visitVariableDeclarator(JavaParser.VariableDeclaratorContext ctx): DatatypeElement" style="text;strokeColor=none;fillColor=none;align=left;verticalAlign=top;spacingLeft=4;spacingRight=4;overflow=hidden;rotatable=0;points=[[0,0.5],[1,0.5]];portConstraint=eastwest;whiteSpace=wrap;html=1;" vertex="1" parent="tuxZoWLmSPnHSPXejTyS-6">
          <mxGeometry y="34" width="350" height="56" as="geometry" />
        </mxCell>
        <mxCell id="tuxZoWLmSPnHSPXejTyS-9" value="" style="endArrow=block;dashed=0;endFill=0;endSize=12;html=1;rounded=0;exitX=0.5;exitY=0;exitDx=0;exitDy=0;entryX=0.5;entryY=1;entryDx=0;entryDy=0;" edge="1" parent="1" source="tuxZoWLmSPnHSPXejTyS-6" target="P_eWGVBI6HkQ4UR9M2wR-68">
          <mxGeometry width="160" relative="1" as="geometry">
            <mxPoint x="325" y="-520" as="sourcePoint" />
            <mxPoint x="495" y="-606" as="targetPoint" />
          </mxGeometry>
        </mxCell>
        <mxCell id="tuxZoWLmSPnHSPXejTyS-10" value="TypeExtractor" style="swimlane;fontStyle=1;align=center;verticalAlign=top;childLayout=stackLayout;horizontal=1;startSize=26;horizontalStack=0;resizeParent=1;resizeParentMax=0;resizeLast=0;collapsible=1;marginBottom=0;whiteSpace=wrap;html=1;" vertex="1" parent="1">
          <mxGeometry x="120" y="-860" width="350" height="90" as="geometry" />
        </mxCell>
        <mxCell id="tuxZoWLmSPnHSPXejTyS-11" value="" style="line;strokeWidth=1;fillColor=none;align=left;verticalAlign=middle;spacingTop=-1;spacingLeft=3;spacingRight=3;rotatable=0;labelPosition=right;points=[];portConstraint=eastwest;strokeColor=inherit;" vertex="1" parent="tuxZoWLmSPnHSPXejTyS-10">
          <mxGeometry y="26" width="350" height="8" as="geometry" />
        </mxCell>
        <mxCell id="tuxZoWLmSPnHSPXejTyS-12" value="+ visitVariableDeclarator(JavaParser.VariableDeclaratorContext ctx): CodeElement" style="text;strokeColor=none;fillColor=none;align=left;verticalAlign=top;spacingLeft=4;spacingRight=4;overflow=hidden;rotatable=0;points=[[0,0.5],[1,0.5]];portConstraint=eastwest;whiteSpace=wrap;html=1;" vertex="1" parent="tuxZoWLmSPnHSPXejTyS-10">
          <mxGeometry y="34" width="350" height="56" as="geometry" />
        </mxCell>
        <mxCell id="tuxZoWLmSPnHSPXejTyS-13" value="" style="endArrow=block;dashed=0;endFill=0;endSize=12;html=1;rounded=0;exitX=0.5;exitY=0;exitDx=0;exitDy=0;entryX=0.5;entryY=1;entryDx=0;entryDy=0;" edge="1" source="tuxZoWLmSPnHSPXejTyS-10" target="tuxZoWLmSPnHSPXejTyS-14" parent="1">
          <mxGeometry width="160" relative="1" as="geometry">
            <mxPoint x="810" y="-750" as="sourcePoint" />
            <mxPoint x="855" y="-950.0519999999999" as="targetPoint" />
          </mxGeometry>
        </mxCell>
        <mxCell id="tuxZoWLmSPnHSPXejTyS-14" value="&lt;div&gt;JavaParserBaseVisitor&amp;lt;CodeElement&amp;gt;&lt;/div&gt;&lt;div&gt;&lt;br&gt;&lt;/div&gt;" style="swimlane;fontStyle=1;align=center;verticalAlign=top;childLayout=stackLayout;horizontal=1;startSize=26;horizontalStack=0;resizeParent=1;resizeParentMax=0;resizeLast=0;collapsible=1;marginBottom=0;whiteSpace=wrap;html=1;" vertex="1" parent="1">
          <mxGeometry x="740" y="-980" width="230" height="34" as="geometry" />
        </mxCell>
        <mxCell id="tuxZoWLmSPnHSPXejTyS-15" value="" style="line;strokeWidth=1;fillColor=none;align=left;verticalAlign=middle;spacingTop=-1;spacingLeft=3;spacingRight=3;rotatable=0;labelPosition=right;points=[];portConstraint=eastwest;strokeColor=inherit;" vertex="1" parent="tuxZoWLmSPnHSPXejTyS-14">
          <mxGeometry y="26" width="230" height="8" as="geometry" />
        </mxCell>
        <mxCell id="tuxZoWLmSPnHSPXejTyS-16" value="MemberExtractor" style="swimlane;fontStyle=1;align=center;verticalAlign=top;childLayout=stackLayout;horizontal=1;startSize=26;horizontalStack=0;resizeParent=1;resizeParentMax=0;resizeLast=0;collapsible=1;marginBottom=0;whiteSpace=wrap;html=1;" vertex="1" parent="1">
          <mxGeometry x="500" y="-860" width="350" height="90" as="geometry" />
        </mxCell>
        <mxCell id="tuxZoWLmSPnHSPXejTyS-17" value="" style="line;strokeWidth=1;fillColor=none;align=left;verticalAlign=middle;spacingTop=-1;spacingLeft=3;spacingRight=3;rotatable=0;labelPosition=right;points=[];portConstraint=eastwest;strokeColor=inherit;" vertex="1" parent="tuxZoWLmSPnHSPXejTyS-16">
          <mxGeometry y="26" width="350" height="8" as="geometry" />
        </mxCell>
        <mxCell id="tuxZoWLmSPnHSPXejTyS-18" value="+ visitVariableDeclarator(JavaParser.VariableDeclaratorContext ctx): CodeElement" style="text;strokeColor=none;fillColor=none;align=left;verticalAlign=top;spacingLeft=4;spacingRight=4;overflow=hidden;rotatable=0;points=[[0,0.5],[1,0.5]];portConstraint=eastwest;whiteSpace=wrap;html=1;" vertex="1" parent="tuxZoWLmSPnHSPXejTyS-16">
          <mxGeometry y="34" width="350" height="56" as="geometry" />
        </mxCell>
        <mxCell id="tuxZoWLmSPnHSPXejTyS-19" value="" style="endArrow=block;dashed=0;endFill=0;endSize=12;html=1;rounded=0;exitX=0.5;exitY=0;exitDx=0;exitDy=0;entryX=0.5;entryY=1;entryDx=0;entryDy=0;" edge="1" source="tuxZoWLmSPnHSPXejTyS-16" target="tuxZoWLmSPnHSPXejTyS-14" parent="1">
          <mxGeometry width="160" relative="1" as="geometry">
            <mxPoint x="695" y="-850" as="sourcePoint" />
            <mxPoint x="865" y="-936" as="targetPoint" />
          </mxGeometry>
        </mxCell>
        <mxCell id="tuxZoWLmSPnHSPXejTyS-20" value="ModuleExtractor" style="swimlane;fontStyle=1;align=center;verticalAlign=top;childLayout=stackLayout;horizontal=1;startSize=26;horizontalStack=0;resizeParent=1;resizeParentMax=0;resizeLast=0;collapsible=1;marginBottom=0;whiteSpace=wrap;html=1;" vertex="1" parent="1">
          <mxGeometry x="1260" y="-860" width="350" height="90" as="geometry" />
        </mxCell>
        <mxCell id="tuxZoWLmSPnHSPXejTyS-21" value="" style="line;strokeWidth=1;fillColor=none;align=left;verticalAlign=middle;spacingTop=-1;spacingLeft=3;spacingRight=3;rotatable=0;labelPosition=right;points=[];portConstraint=eastwest;strokeColor=inherit;" vertex="1" parent="tuxZoWLmSPnHSPXejTyS-20">
          <mxGeometry y="26" width="350" height="8" as="geometry" />
        </mxCell>
        <mxCell id="tuxZoWLmSPnHSPXejTyS-22" value="+ visitVariableDeclarator(JavaParser.VariableDeclaratorContext ctx): CodeElement" style="text;strokeColor=none;fillColor=none;align=left;verticalAlign=top;spacingLeft=4;spacingRight=4;overflow=hidden;rotatable=0;points=[[0,0.5],[1,0.5]];portConstraint=eastwest;whiteSpace=wrap;html=1;" vertex="1" parent="tuxZoWLmSPnHSPXejTyS-20">
          <mxGeometry y="34" width="350" height="56" as="geometry" />
        </mxCell>
        <mxCell id="tuxZoWLmSPnHSPXejTyS-23" value="" style="endArrow=block;dashed=0;endFill=0;endSize=12;html=1;rounded=0;exitX=0.5;exitY=0;exitDx=0;exitDy=0;entryX=0.5;entryY=1;entryDx=0;entryDy=0;" edge="1" source="tuxZoWLmSPnHSPXejTyS-20" parent="1" target="tuxZoWLmSPnHSPXejTyS-14">
          <mxGeometry width="160" relative="1" as="geometry">
            <mxPoint x="860" y="-994" as="sourcePoint" />
            <mxPoint x="880" y="-910" as="targetPoint" />
          </mxGeometry>
        </mxCell>
        <mxCell id="tuxZoWLmSPnHSPXejTyS-24" value="" style="endArrow=block;dashed=0;endFill=0;endSize=12;html=1;rounded=0;exitX=0.5;exitY=0;exitDx=0;exitDy=0;entryX=0.5;entryY=1;entryDx=0;entryDy=0;" edge="1" source="tuxZoWLmSPnHSPXejTyS-25" parent="1" target="tuxZoWLmSPnHSPXejTyS-14">
          <mxGeometry width="160" relative="1" as="geometry">
            <mxPoint x="1010" y="-1168" as="sourcePoint" />
            <mxPoint x="860" y="-940" as="targetPoint" />
          </mxGeometry>
        </mxCell>
        <mxCell id="tuxZoWLmSPnHSPXejTyS-25" value="PackageExtractor" style="swimlane;fontStyle=1;align=center;verticalAlign=top;childLayout=stackLayout;horizontal=1;startSize=26;horizontalStack=0;resizeParent=1;resizeParentMax=0;resizeLast=0;collapsible=1;marginBottom=0;whiteSpace=wrap;html=1;" vertex="1" parent="1">
          <mxGeometry x="880" y="-860" width="350" height="90" as="geometry" />
        </mxCell>
        <mxCell id="tuxZoWLmSPnHSPXejTyS-26" value="" style="line;strokeWidth=1;fillColor=none;align=left;verticalAlign=middle;spacingTop=-1;spacingLeft=3;spacingRight=3;rotatable=0;labelPosition=right;points=[];portConstraint=eastwest;strokeColor=inherit;" vertex="1" parent="tuxZoWLmSPnHSPXejTyS-25">
          <mxGeometry y="26" width="350" height="8" as="geometry" />
        </mxCell>
        <mxCell id="tuxZoWLmSPnHSPXejTyS-27" value="+ visitVariableDeclarator(JavaParser.VariableDeclaratorContext ctx): CodeElement" style="text;strokeColor=none;fillColor=none;align=left;verticalAlign=top;spacingLeft=4;spacingRight=4;overflow=hidden;rotatable=0;points=[[0,0.5],[1,0.5]];portConstraint=eastwest;whiteSpace=wrap;html=1;" vertex="1" parent="tuxZoWLmSPnHSPXejTyS-25">
          <mxGeometry y="34" width="350" height="56" as="geometry" />
        </mxCell>
        <mxCell id="tuxZoWLmSPnHSPXejTyS-28" value="JavaExtractor" style="swimlane;fontStyle=1;align=center;verticalAlign=top;childLayout=stackLayout;horizontal=1;startSize=26;horizontalStack=0;resizeParent=1;resizeParentMax=0;resizeLast=0;collapsible=1;marginBottom=0;whiteSpace=wrap;html=1;" vertex="1" parent="1">
          <mxGeometry x="25" y="190" width="175" height="86" as="geometry" />
        </mxCell>
        <mxCell id="tuxZoWLmSPnHSPXejTyS-29" value="+ field: type" style="text;strokeColor=none;fillColor=none;align=left;verticalAlign=top;spacingLeft=4;spacingRight=4;overflow=hidden;rotatable=0;points=[[0,0.5],[1,0.5]];portConstraint=eastwest;whiteSpace=wrap;html=1;" vertex="1" parent="tuxZoWLmSPnHSPXejTyS-28">
          <mxGeometry y="26" width="175" height="26" as="geometry" />
        </mxCell>
        <mxCell id="tuxZoWLmSPnHSPXejTyS-30" value="" style="line;strokeWidth=1;fillColor=none;align=left;verticalAlign=middle;spacingTop=-1;spacingLeft=3;spacingRight=3;rotatable=0;labelPosition=right;points=[];portConstraint=eastwest;strokeColor=inherit;" vertex="1" parent="tuxZoWLmSPnHSPXejTyS-28">
          <mxGeometry y="52" width="175" height="8" as="geometry" />
        </mxCell>
        <mxCell id="tuxZoWLmSPnHSPXejTyS-31" value="+ method(type): type" style="text;strokeColor=none;fillColor=none;align=left;verticalAlign=top;spacingLeft=4;spacingRight=4;overflow=hidden;rotatable=0;points=[[0,0.5],[1,0.5]];portConstraint=eastwest;whiteSpace=wrap;html=1;" vertex="1" parent="tuxZoWLmSPnHSPXejTyS-28">
          <mxGeometry y="60" width="175" height="26" as="geometry" />
        </mxCell>
        <mxCell id="tuxZoWLmSPnHSPXejTyS-39" value="PythonExtractor" style="swimlane;fontStyle=1;align=center;verticalAlign=top;childLayout=stackLayout;horizontal=1;startSize=26;horizontalStack=0;resizeParent=1;resizeParentMax=0;resizeLast=0;collapsible=1;marginBottom=0;whiteSpace=wrap;html=1;" vertex="1" parent="1">
          <mxGeometry x="-1640" y="150" width="175" height="86" as="geometry" />
        </mxCell>
        <mxCell id="tuxZoWLmSPnHSPXejTyS-40" value="+ field: type" style="text;strokeColor=none;fillColor=none;align=left;verticalAlign=top;spacingLeft=4;spacingRight=4;overflow=hidden;rotatable=0;points=[[0,0.5],[1,0.5]];portConstraint=eastwest;whiteSpace=wrap;html=1;" vertex="1" parent="tuxZoWLmSPnHSPXejTyS-39">
          <mxGeometry y="26" width="175" height="26" as="geometry" />
        </mxCell>
        <mxCell id="tuxZoWLmSPnHSPXejTyS-41" value="" style="line;strokeWidth=1;fillColor=none;align=left;verticalAlign=middle;spacingTop=-1;spacingLeft=3;spacingRight=3;rotatable=0;labelPosition=right;points=[];portConstraint=eastwest;strokeColor=inherit;" vertex="1" parent="tuxZoWLmSPnHSPXejTyS-39">
          <mxGeometry y="52" width="175" height="8" as="geometry" />
        </mxCell>
        <mxCell id="tuxZoWLmSPnHSPXejTyS-42" value="+ method(type): type" style="text;strokeColor=none;fillColor=none;align=left;verticalAlign=top;spacingLeft=4;spacingRight=4;overflow=hidden;rotatable=0;points=[[0,0.5],[1,0.5]];portConstraint=eastwest;whiteSpace=wrap;html=1;" vertex="1" parent="tuxZoWLmSPnHSPXejTyS-39">
          <mxGeometry y="60" width="175" height="26" as="geometry" />
        </mxCell>
        <mxCell id="tuxZoWLmSPnHSPXejTyS-44" value="&lt;i&gt;AntlrCodeExtractor&lt;/i&gt;" style="swimlane;fontStyle=1;align=center;verticalAlign=top;childLayout=stackLayout;horizontal=1;startSize=26;horizontalStack=0;resizeParent=1;resizeParentMax=0;resizeLast=0;collapsible=1;marginBottom=0;whiteSpace=wrap;html=1;" vertex="1" parent="1">
          <mxGeometry x="-795" y="-390" width="220" height="190" as="geometry" />
        </mxCell>
        <mxCell id="tuxZoWLmSPnHSPXejTyS-45" value="&lt;div&gt;- extractor: AntlrExtractor&lt;/div&gt;&lt;div&gt;- mapper: AntlrMapper&lt;br&gt;&lt;/div&gt;" style="text;strokeColor=none;fillColor=none;align=left;verticalAlign=top;spacingLeft=4;spacingRight=4;overflow=hidden;rotatable=0;points=[[0,0.5],[1,0.5]];portConstraint=eastwest;whiteSpace=wrap;html=1;" vertex="1" parent="tuxZoWLmSPnHSPXejTyS-44">
          <mxGeometry y="26" width="220" height="44" as="geometry" />
        </mxCell>
        <mxCell id="tuxZoWLmSPnHSPXejTyS-46" value="" style="line;strokeWidth=1;fillColor=none;align=left;verticalAlign=middle;spacingTop=-1;spacingLeft=3;spacingRight=3;rotatable=0;labelPosition=right;points=[];portConstraint=eastwest;strokeColor=inherit;" vertex="1" parent="tuxZoWLmSPnHSPXejTyS-44">
          <mxGeometry y="70" width="220" height="8" as="geometry" />
        </mxCell>
        <mxCell id="tuxZoWLmSPnHSPXejTyS-47" value="&lt;div&gt;+ extractModel(): Model&lt;/div&gt;&lt;div&gt;+ getModelType(): ModelType&lt;/div&gt;&lt;div&gt;&lt;i&gt;- extractElements(): List&amp;lt;CodeElement&amp;gt;&lt;/i&gt;&lt;/div&gt;&lt;div&gt;&lt;i&gt;- mapElements(): Model&lt;/i&gt;&lt;br&gt;&lt;/div&gt;" style="text;strokeColor=none;fillColor=none;align=left;verticalAlign=top;spacingLeft=4;spacingRight=4;overflow=hidden;rotatable=0;points=[[0,0.5],[1,0.5]];portConstraint=eastwest;whiteSpace=wrap;html=1;" vertex="1" parent="tuxZoWLmSPnHSPXejTyS-44">
          <mxGeometry y="78" width="220" height="112" as="geometry" />
        </mxCell>
        <mxCell id="tuxZoWLmSPnHSPXejTyS-48" value="" style="endArrow=block;dashed=0;endFill=0;endSize=12;html=1;rounded=0;exitX=0.5;exitY=0;exitDx=0;exitDy=0;entryX=0.504;entryY=1;entryDx=0;entryDy=0;entryPerimeter=0;" edge="1" parent="1" source="tuxZoWLmSPnHSPXejTyS-44" target="P_eWGVBI6HkQ4UR9M2wR-15">
          <mxGeometry width="160" relative="1" as="geometry">
            <mxPoint x="-689.5" y="-430" as="sourcePoint" />
            <mxPoint x="-690.5" y="-510" as="targetPoint" />
          </mxGeometry>
        </mxCell>
        <mxCell id="tuxZoWLmSPnHSPXejTyS-54" value="&lt;div&gt;&lt;span style=&quot;font-weight: normal;&quot;&gt;&amp;lt;&amp;lt;Interface&amp;gt;&amp;gt;&lt;/span&gt;&lt;/div&gt;&lt;div&gt;AntlrModelMapper&lt;br&gt;&lt;/div&gt;" style="swimlane;fontStyle=1;align=center;verticalAlign=top;childLayout=stackLayout;horizontal=1;startSize=40;horizontalStack=0;resizeParent=1;resizeParentMax=0;resizeLast=0;collapsible=1;marginBottom=0;whiteSpace=wrap;html=1;" vertex="1" parent="1">
          <mxGeometry x="-515" y="-50" width="200" height="90" as="geometry" />
        </mxCell>
        <mxCell id="tuxZoWLmSPnHSPXejTyS-55" value="" style="line;strokeWidth=1;fillColor=none;align=left;verticalAlign=middle;spacingTop=-1;spacingLeft=3;spacingRight=3;rotatable=0;labelPosition=right;points=[];portConstraint=eastwest;strokeColor=inherit;" vertex="1" parent="tuxZoWLmSPnHSPXejTyS-54">
          <mxGeometry y="40" width="200" height="8" as="geometry" />
        </mxCell>
        <mxCell id="tuxZoWLmSPnHSPXejTyS-56" value="+map(List&amp;lt;CodeElement&amp;gt;): Model" style="text;strokeColor=none;fillColor=none;align=left;verticalAlign=top;spacingLeft=4;spacingRight=4;overflow=hidden;rotatable=0;points=[[0,0.5],[1,0.5]];portConstraint=eastwest;whiteSpace=wrap;html=1;" vertex="1" parent="tuxZoWLmSPnHSPXejTyS-54">
          <mxGeometry y="48" width="200" height="42" as="geometry" />
        </mxCell>
        <mxCell id="tuxZoWLmSPnHSPXejTyS-57" value="" style="endArrow=open;endSize=12;dashed=1;html=1;rounded=0;exitX=0.495;exitY=0.997;exitDx=0;exitDy=0;exitPerimeter=0;entryX=0.5;entryY=0;entryDx=0;entryDy=0;" edge="1" parent="1" source="tuxZoWLmSPnHSPXejTyS-47" target="tuxZoWLmSPnHSPXejTyS-64">
          <mxGeometry width="160" relative="1" as="geometry">
            <mxPoint x="-840" y="-60" as="sourcePoint" />
            <mxPoint x="-970" y="-50" as="targetPoint" />
          </mxGeometry>
        </mxCell>
        <mxCell id="tuxZoWLmSPnHSPXejTyS-58" value="" style="endArrow=open;endSize=12;dashed=1;html=1;rounded=0;exitX=0.498;exitY=1.002;exitDx=0;exitDy=0;exitPerimeter=0;entryX=0.5;entryY=0;entryDx=0;entryDy=0;" edge="1" parent="1" source="tuxZoWLmSPnHSPXejTyS-47" target="tuxZoWLmSPnHSPXejTyS-54">
          <mxGeometry width="160" relative="1" as="geometry">
            <mxPoint x="-676" y="-190" as="sourcePoint" />
            <mxPoint x="-960" y="-40" as="targetPoint" />
          </mxGeometry>
        </mxCell>
        <mxCell id="tuxZoWLmSPnHSPXejTyS-60" value="" style="endArrow=block;dashed=1;endFill=0;endSize=12;html=1;rounded=0;exitX=0;exitY=0.5;exitDx=0;exitDy=0;entryX=1;entryY=1;entryDx=0;entryDy=0;" edge="1" parent="1" source="tuxZoWLmSPnHSPXejTyS-4" target="tuxZoWLmSPnHSPXejTyS-54">
          <mxGeometry width="160" relative="1" as="geometry">
            <mxPoint x="330" y="-60" as="sourcePoint" />
            <mxPoint x="490" y="-60" as="targetPoint" />
          </mxGeometry>
        </mxCell>
        <mxCell id="tuxZoWLmSPnHSPXejTyS-62" value="JavaVisitors" style="text;align=center;fontStyle=1;verticalAlign=middle;spacingLeft=3;spacingRight=3;strokeColor=none;rotatable=0;points=[[0,0.5],[1,0.5]];portConstraint=eastwest;html=1;" vertex="1" parent="1">
          <mxGeometry x="-20" y="-1060" width="80" height="16" as="geometry" />
        </mxCell>
        <mxCell id="tuxZoWLmSPnHSPXejTyS-63" value="" style="endArrow=open;endSize=12;dashed=1;html=1;rounded=0;exitX=0.5;exitY=0;exitDx=0;exitDy=0;entryX=0.25;entryY=1;entryDx=0;entryDy=0;entryPerimeter=0;" edge="1" parent="1" source="tuxZoWLmSPnHSPXejTyS-28" target="tuxZoWLmSPnHSPXejTyS-61">
          <mxGeometry width="160" relative="1" as="geometry">
            <mxPoint x="560" y="-540" as="sourcePoint" />
            <mxPoint x="720" y="-540" as="targetPoint" />
          </mxGeometry>
        </mxCell>
        <mxCell id="tuxZoWLmSPnHSPXejTyS-64" value="&lt;i&gt;AntlrExtractor&lt;/i&gt;" style="swimlane;fontStyle=1;align=center;verticalAlign=top;childLayout=stackLayout;horizontal=1;startSize=26;horizontalStack=0;resizeParent=1;resizeParentMax=0;resizeLast=0;collapsible=1;marginBottom=0;whiteSpace=wrap;html=1;" vertex="1" parent="1">
          <mxGeometry x="-1070" y="-40" width="200" height="120" as="geometry" />
        </mxCell>
        <mxCell id="tuxZoWLmSPnHSPXejTyS-65" value="+ field: type" style="text;strokeColor=none;fillColor=none;align=left;verticalAlign=top;spacingLeft=4;spacingRight=4;overflow=hidden;rotatable=0;points=[[0,0.5],[1,0.5]];portConstraint=eastwest;whiteSpace=wrap;html=1;" vertex="1" parent="tuxZoWLmSPnHSPXejTyS-64">
          <mxGeometry y="26" width="200" height="26" as="geometry" />
        </mxCell>
        <mxCell id="tuxZoWLmSPnHSPXejTyS-66" value="" style="line;strokeWidth=1;fillColor=none;align=left;verticalAlign=middle;spacingTop=-1;spacingLeft=3;spacingRight=3;rotatable=0;labelPosition=right;points=[];portConstraint=eastwest;strokeColor=inherit;" vertex="1" parent="tuxZoWLmSPnHSPXejTyS-64">
          <mxGeometry y="52" width="200" height="8" as="geometry" />
        </mxCell>
        <mxCell id="tuxZoWLmSPnHSPXejTyS-67" value="&lt;div&gt;+ extract(): List&amp;lt;CodeElement&amp;gt;&lt;/div&gt;&lt;div&gt;&lt;i&gt;#extractVars()&lt;/i&gt;&lt;/div&gt;&lt;div&gt;&lt;i&gt;#extractFuncs()&lt;/i&gt;&lt;/div&gt;&lt;div&gt;&lt;i&gt;...&lt;br&gt;&lt;/i&gt;&lt;/div&gt;" style="text;strokeColor=none;fillColor=none;align=left;verticalAlign=top;spacingLeft=4;spacingRight=4;overflow=hidden;rotatable=0;points=[[0,0.5],[1,0.5]];portConstraint=eastwest;whiteSpace=wrap;html=1;" vertex="1" parent="tuxZoWLmSPnHSPXejTyS-64">
          <mxGeometry y="60" width="200" height="60" as="geometry" />
        </mxCell>
        <mxCell id="tuxZoWLmSPnHSPXejTyS-68" value="" style="endArrow=block;dashed=0;endFill=0;endSize=12;html=1;rounded=0;exitX=1;exitY=0.5;exitDx=0;exitDy=0;entryX=0.5;entryY=1;entryDx=0;entryDy=0;" edge="1" parent="1" source="tuxZoWLmSPnHSPXejTyS-40" target="tuxZoWLmSPnHSPXejTyS-64">
          <mxGeometry width="160" relative="1" as="geometry">
            <mxPoint x="-980" y="276" as="sourcePoint" />
            <mxPoint x="-979" y="126" as="targetPoint" />
          </mxGeometry>
        </mxCell>
        <mxCell id="tuxZoWLmSPnHSPXejTyS-69" value="" style="endArrow=block;dashed=0;endFill=0;endSize=12;html=1;rounded=0;entryX=0.495;entryY=1;entryDx=0;entryDy=0;exitX=0;exitY=0.5;exitDx=0;exitDy=0;entryPerimeter=0;" edge="1" parent="1" source="tuxZoWLmSPnHSPXejTyS-29" target="tuxZoWLmSPnHSPXejTyS-67">
          <mxGeometry width="160" relative="1" as="geometry">
            <mxPoint x="-40" y="250" as="sourcePoint" />
            <mxPoint x="-960" y="90" as="targetPoint" />
          </mxGeometry>
        </mxCell>
        <mxCell id="tuxZoWLmSPnHSPXejTyS-70" value="" style="shape=folder;fontStyle=1;spacingTop=10;tabWidth=40;tabHeight=14;tabPosition=left;html=1;whiteSpace=wrap;fillColor=none;" vertex="1" parent="1">
          <mxGeometry x="-2960" y="-1070" width="1710" height="1000" as="geometry" />
        </mxCell>
        <mxCell id="tuxZoWLmSPnHSPXejTyS-71" value="Python3VariableExtractor" style="swimlane;fontStyle=1;align=center;verticalAlign=top;childLayout=stackLayout;horizontal=1;startSize=26;horizontalStack=0;resizeParent=1;resizeParentMax=0;resizeLast=0;collapsible=1;marginBottom=0;whiteSpace=wrap;html=1;" vertex="1" parent="1">
          <mxGeometry x="-2790" y="-540" width="360" height="100" as="geometry" />
        </mxCell>
        <mxCell id="tuxZoWLmSPnHSPXejTyS-72" value="" style="line;strokeWidth=1;fillColor=none;align=left;verticalAlign=middle;spacingTop=-1;spacingLeft=3;spacingRight=3;rotatable=0;labelPosition=right;points=[];portConstraint=eastwest;strokeColor=inherit;" vertex="1" parent="tuxZoWLmSPnHSPXejTyS-71">
          <mxGeometry y="26" width="360" height="8" as="geometry" />
        </mxCell>
        <mxCell id="tuxZoWLmSPnHSPXejTyS-73" value="&lt;div&gt;+ visitAssign(Python3Parser.AssignContext ctx): DatatypeElement&lt;/div&gt;&lt;div&gt;+ visitAugassign(Python3Parser.AugassignContext ctx): DatatypeElement&lt;br&gt;&lt;/div&gt;" style="text;strokeColor=none;fillColor=none;align=left;verticalAlign=top;spacingLeft=4;spacingRight=4;overflow=hidden;rotatable=0;points=[[0,0.5],[1,0.5]];portConstraint=eastwest;whiteSpace=wrap;html=1;" vertex="1" parent="tuxZoWLmSPnHSPXejTyS-71">
          <mxGeometry y="34" width="360" height="66" as="geometry" />
        </mxCell>
        <mxCell id="tuxZoWLmSPnHSPXejTyS-74" value="" style="endArrow=block;dashed=0;endFill=0;endSize=12;html=1;rounded=0;exitX=0.5;exitY=0;exitDx=0;exitDy=0;entryX=0.5;entryY=1;entryDx=0;entryDy=0;" edge="1" source="tuxZoWLmSPnHSPXejTyS-71" target="tuxZoWLmSPnHSPXejTyS-75" parent="1">
          <mxGeometry width="160" relative="1" as="geometry">
            <mxPoint x="-2490" y="-430" as="sourcePoint" />
            <mxPoint x="-2445" y="-630.0519999999999" as="targetPoint" />
          </mxGeometry>
        </mxCell>
        <mxCell id="tuxZoWLmSPnHSPXejTyS-75" value="&lt;div&gt;Python3ParserBaseVisitor&amp;lt;DatatypeElement&amp;gt;&lt;/div&gt;&lt;div&gt;&lt;br&gt;&lt;/div&gt;" style="swimlane;fontStyle=1;align=center;verticalAlign=top;childLayout=stackLayout;horizontal=1;startSize=26;horizontalStack=0;resizeParent=1;resizeParentMax=0;resizeLast=0;collapsible=1;marginBottom=0;whiteSpace=wrap;html=1;" vertex="1" parent="1">
          <mxGeometry x="-2580" y="-660" width="280" height="34" as="geometry" />
        </mxCell>
        <mxCell id="tuxZoWLmSPnHSPXejTyS-76" value="" style="line;strokeWidth=1;fillColor=none;align=left;verticalAlign=middle;spacingTop=-1;spacingLeft=3;spacingRight=3;rotatable=0;labelPosition=right;points=[];portConstraint=eastwest;strokeColor=inherit;" vertex="1" parent="tuxZoWLmSPnHSPXejTyS-75">
          <mxGeometry y="26" width="280" height="8" as="geometry" />
        </mxCell>
        <mxCell id="tuxZoWLmSPnHSPXejTyS-77" value="&lt;div&gt;Python3ParserBaseVisitor&amp;lt;ClassElement&amp;gt;&lt;/div&gt;&lt;div&gt;&lt;br&gt;&lt;/div&gt;" style="swimlane;fontStyle=1;align=center;verticalAlign=top;childLayout=stackLayout;horizontal=1;startSize=26;horizontalStack=0;resizeParent=1;resizeParentMax=0;resizeLast=0;collapsible=1;marginBottom=0;whiteSpace=wrap;html=1;" vertex="1" parent="1">
          <mxGeometry x="-1960" y="-670" width="230" height="34" as="geometry" />
        </mxCell>
        <mxCell id="tuxZoWLmSPnHSPXejTyS-78" value="" style="line;strokeWidth=1;fillColor=none;align=left;verticalAlign=middle;spacingTop=-1;spacingLeft=3;spacingRight=3;rotatable=0;labelPosition=right;points=[];portConstraint=eastwest;strokeColor=inherit;" vertex="1" parent="tuxZoWLmSPnHSPXejTyS-77">
          <mxGeometry y="26" width="230" height="8" as="geometry" />
        </mxCell>
        <mxCell id="tuxZoWLmSPnHSPXejTyS-79" value="" style="endArrow=block;dashed=0;endFill=0;endSize=12;html=1;rounded=0;exitX=0.5;exitY=0;exitDx=0;exitDy=0;entryX=0.5;entryY=1;entryDx=0;entryDy=0;" edge="1" source="tuxZoWLmSPnHSPXejTyS-80" target="tuxZoWLmSPnHSPXejTyS-77" parent="1">
          <mxGeometry width="160" relative="1" as="geometry">
            <mxPoint x="-1890" y="-440" as="sourcePoint" />
            <mxPoint x="-1845" y="-640.0519999999999" as="targetPoint" />
          </mxGeometry>
        </mxCell>
        <mxCell id="tuxZoWLmSPnHSPXejTyS-80" value="PythonClassExtractor" style="swimlane;fontStyle=1;align=center;verticalAlign=top;childLayout=stackLayout;horizontal=1;startSize=26;horizontalStack=0;resizeParent=1;resizeParentMax=0;resizeLast=0;collapsible=1;marginBottom=0;whiteSpace=wrap;html=1;" vertex="1" parent="1">
          <mxGeometry x="-2020" y="-540" width="350" height="90" as="geometry" />
        </mxCell>
        <mxCell id="tuxZoWLmSPnHSPXejTyS-81" value="" style="line;strokeWidth=1;fillColor=none;align=left;verticalAlign=middle;spacingTop=-1;spacingLeft=3;spacingRight=3;rotatable=0;labelPosition=right;points=[];portConstraint=eastwest;strokeColor=inherit;" vertex="1" parent="tuxZoWLmSPnHSPXejTyS-80">
          <mxGeometry y="26" width="350" height="8" as="geometry" />
        </mxCell>
        <mxCell id="tuxZoWLmSPnHSPXejTyS-82" value="+ visitClassdef(Python3Parser.ClassdefContext ctx): ClassElement" style="text;strokeColor=none;fillColor=none;align=left;verticalAlign=top;spacingLeft=4;spacingRight=4;overflow=hidden;rotatable=0;points=[[0,0.5],[1,0.5]];portConstraint=eastwest;whiteSpace=wrap;html=1;" vertex="1" parent="tuxZoWLmSPnHSPXejTyS-80">
          <mxGeometry y="34" width="350" height="56" as="geometry" />
        </mxCell>
        <mxCell id="tuxZoWLmSPnHSPXejTyS-89" value="&lt;div&gt;Python3ParserBaseVisitor&amp;lt;ControlElement&amp;gt;&lt;/div&gt;&lt;div&gt;&lt;br&gt;&lt;/div&gt;" style="swimlane;fontStyle=1;align=center;verticalAlign=top;childLayout=stackLayout;horizontal=1;startSize=26;horizontalStack=0;resizeParent=1;resizeParentMax=0;resizeLast=0;collapsible=1;marginBottom=0;whiteSpace=wrap;html=1;" vertex="1" parent="1">
          <mxGeometry x="-2730" y="-360" width="230" height="34" as="geometry" />
        </mxCell>
        <mxCell id="tuxZoWLmSPnHSPXejTyS-90" value="" style="line;strokeWidth=1;fillColor=none;align=left;verticalAlign=middle;spacingTop=-1;spacingLeft=3;spacingRight=3;rotatable=0;labelPosition=right;points=[];portConstraint=eastwest;strokeColor=inherit;" vertex="1" parent="tuxZoWLmSPnHSPXejTyS-89">
          <mxGeometry y="26" width="230" height="8" as="geometry" />
        </mxCell>
        <mxCell id="tuxZoWLmSPnHSPXejTyS-91" value="" style="endArrow=block;dashed=0;endFill=0;endSize=12;html=1;rounded=0;exitX=0.5;exitY=0;exitDx=0;exitDy=0;entryX=0.5;entryY=1;entryDx=0;entryDy=0;" edge="1" source="tuxZoWLmSPnHSPXejTyS-92" target="tuxZoWLmSPnHSPXejTyS-89" parent="1">
          <mxGeometry width="160" relative="1" as="geometry">
            <mxPoint x="-2660" y="-130" as="sourcePoint" />
            <mxPoint x="-2615" y="-330.0519999999999" as="targetPoint" />
          </mxGeometry>
        </mxCell>
        <mxCell id="tuxZoWLmSPnHSPXejTyS-92" value="PythonMethodExtractor" style="swimlane;fontStyle=1;align=center;verticalAlign=top;childLayout=stackLayout;horizontal=1;startSize=26;horizontalStack=0;resizeParent=1;resizeParentMax=0;resizeLast=0;collapsible=1;marginBottom=0;whiteSpace=wrap;html=1;" vertex="1" parent="1">
          <mxGeometry x="-2790" y="-230" width="350" height="100" as="geometry" />
        </mxCell>
        <mxCell id="tuxZoWLmSPnHSPXejTyS-93" value="" style="line;strokeWidth=1;fillColor=none;align=left;verticalAlign=middle;spacingTop=-1;spacingLeft=3;spacingRight=3;rotatable=0;labelPosition=right;points=[];portConstraint=eastwest;strokeColor=inherit;" vertex="1" parent="tuxZoWLmSPnHSPXejTyS-92">
          <mxGeometry y="26" width="350" height="8" as="geometry" />
        </mxCell>
        <mxCell id="tuxZoWLmSPnHSPXejTyS-94" value="&lt;div&gt;+ visitFuncdef(Python3Parser.FuncdefContext ctx): ControlElement&lt;/div&gt;&lt;div&gt;+ visitAsync_funcdef(Python3Parser.Async_funcdefContext ctx): ControlElement&lt;br&gt;&lt;/div&gt;" style="text;strokeColor=none;fillColor=none;align=left;verticalAlign=top;spacingLeft=4;spacingRight=4;overflow=hidden;rotatable=0;points=[[0,0.5],[1,0.5]];portConstraint=eastwest;whiteSpace=wrap;html=1;" vertex="1" parent="tuxZoWLmSPnHSPXejTyS-92">
          <mxGeometry y="34" width="350" height="66" as="geometry" />
        </mxCell>
        <mxCell id="tuxZoWLmSPnHSPXejTyS-95" value="Python3ParameterExtractor" style="swimlane;fontStyle=1;align=center;verticalAlign=top;childLayout=stackLayout;horizontal=1;startSize=26;horizontalStack=0;resizeParent=1;resizeParentMax=0;resizeLast=0;collapsible=1;marginBottom=0;whiteSpace=wrap;html=1;" vertex="1" parent="1">
          <mxGeometry x="-2410" y="-540" width="350" height="90" as="geometry" />
        </mxCell>
        <mxCell id="tuxZoWLmSPnHSPXejTyS-96" value="" style="line;strokeWidth=1;fillColor=none;align=left;verticalAlign=middle;spacingTop=-1;spacingLeft=3;spacingRight=3;rotatable=0;labelPosition=right;points=[];portConstraint=eastwest;strokeColor=inherit;" vertex="1" parent="tuxZoWLmSPnHSPXejTyS-95">
          <mxGeometry y="26" width="350" height="8" as="geometry" />
        </mxCell>
        <mxCell id="tuxZoWLmSPnHSPXejTyS-97" value="&lt;div&gt;+ visitParameters(Python3Parser.ParameterContext ctx): DatatypeElement&lt;/div&gt;&lt;div&gt;+ visitTypedargslist(Python3Parser.TypedargslistContext ctx): DatatypeElement&lt;br&gt;&lt;/div&gt;" style="text;strokeColor=none;fillColor=none;align=left;verticalAlign=top;spacingLeft=4;spacingRight=4;overflow=hidden;rotatable=0;points=[[0,0.5],[1,0.5]];portConstraint=eastwest;whiteSpace=wrap;html=1;" vertex="1" parent="tuxZoWLmSPnHSPXejTyS-95">
          <mxGeometry y="34" width="350" height="56" as="geometry" />
        </mxCell>
        <mxCell id="tuxZoWLmSPnHSPXejTyS-98" value="" style="endArrow=block;dashed=0;endFill=0;endSize=12;html=1;rounded=0;exitX=0.5;exitY=0;exitDx=0;exitDy=0;entryX=0.5;entryY=1;entryDx=0;entryDy=0;" edge="1" source="tuxZoWLmSPnHSPXejTyS-95" target="tuxZoWLmSPnHSPXejTyS-75" parent="1">
          <mxGeometry width="160" relative="1" as="geometry">
            <mxPoint x="-2605" y="-530" as="sourcePoint" />
            <mxPoint x="-2435" y="-616" as="targetPoint" />
          </mxGeometry>
        </mxCell>
        <mxCell id="tuxZoWLmSPnHSPXejTyS-99" value="Python3ModuleExtractor" style="swimlane;fontStyle=1;align=center;verticalAlign=top;childLayout=stackLayout;horizontal=1;startSize=26;horizontalStack=0;resizeParent=1;resizeParentMax=0;resizeLast=0;collapsible=1;marginBottom=0;whiteSpace=wrap;html=1;" vertex="1" parent="1">
          <mxGeometry x="-2810" y="-870" width="350" height="90" as="geometry" />
        </mxCell>
        <mxCell id="tuxZoWLmSPnHSPXejTyS-100" value="" style="line;strokeWidth=1;fillColor=none;align=left;verticalAlign=middle;spacingTop=-1;spacingLeft=3;spacingRight=3;rotatable=0;labelPosition=right;points=[];portConstraint=eastwest;strokeColor=inherit;" vertex="1" parent="tuxZoWLmSPnHSPXejTyS-99">
          <mxGeometry y="26" width="350" height="8" as="geometry" />
        </mxCell>
        <mxCell id="tuxZoWLmSPnHSPXejTyS-101" value="&lt;div&gt;+ visitFile_input(Python3Parser.File_inputContext ctx):ModuleElement&lt;/div&gt;&lt;div&gt;+ visitStmt(Python3Parser.StmtContext ctx): CodeElement&lt;br&gt;&lt;/div&gt;" style="text;strokeColor=none;fillColor=none;align=left;verticalAlign=top;spacingLeft=4;spacingRight=4;overflow=hidden;rotatable=0;points=[[0,0.5],[1,0.5]];portConstraint=eastwest;whiteSpace=wrap;html=1;" vertex="1" parent="tuxZoWLmSPnHSPXejTyS-99">
          <mxGeometry y="34" width="350" height="56" as="geometry" />
        </mxCell>
        <mxCell id="tuxZoWLmSPnHSPXejTyS-102" value="" style="endArrow=block;dashed=0;endFill=0;endSize=12;html=1;rounded=0;exitX=0.5;exitY=0;exitDx=0;exitDy=0;entryX=0.5;entryY=1;entryDx=0;entryDy=0;" edge="1" source="tuxZoWLmSPnHSPXejTyS-99" target="tuxZoWLmSPnHSPXejTyS-103" parent="1">
          <mxGeometry width="160" relative="1" as="geometry">
            <mxPoint x="-2120" y="-760" as="sourcePoint" />
            <mxPoint x="-2075" y="-960.0519999999999" as="targetPoint" />
          </mxGeometry>
        </mxCell>
        <mxCell id="tuxZoWLmSPnHSPXejTyS-103" value="&lt;div&gt;JavaParserBaseVisitor&amp;lt;CodeElement&amp;gt;&lt;/div&gt;&lt;div&gt;&lt;br&gt;&lt;/div&gt;" style="swimlane;fontStyle=1;align=center;verticalAlign=top;childLayout=stackLayout;horizontal=1;startSize=26;horizontalStack=0;resizeParent=1;resizeParentMax=0;resizeLast=0;collapsible=1;marginBottom=0;whiteSpace=wrap;html=1;" vertex="1" parent="1">
          <mxGeometry x="-2190" y="-990" width="230" height="34" as="geometry" />
        </mxCell>
        <mxCell id="tuxZoWLmSPnHSPXejTyS-104" value="" style="line;strokeWidth=1;fillColor=none;align=left;verticalAlign=middle;spacingTop=-1;spacingLeft=3;spacingRight=3;rotatable=0;labelPosition=right;points=[];portConstraint=eastwest;strokeColor=inherit;" vertex="1" parent="tuxZoWLmSPnHSPXejTyS-103">
          <mxGeometry y="26" width="230" height="8" as="geometry" />
        </mxCell>
        <mxCell id="tuxZoWLmSPnHSPXejTyS-105" value="Python3DecoratorExtractor" style="swimlane;fontStyle=1;align=center;verticalAlign=top;childLayout=stackLayout;horizontal=1;startSize=26;horizontalStack=0;resizeParent=1;resizeParentMax=0;resizeLast=0;collapsible=1;marginBottom=0;whiteSpace=wrap;html=1;" vertex="1" parent="1">
          <mxGeometry x="-1980" y="-890" width="350" height="90" as="geometry" />
        </mxCell>
        <mxCell id="tuxZoWLmSPnHSPXejTyS-106" value="" style="line;strokeWidth=1;fillColor=none;align=left;verticalAlign=middle;spacingTop=-1;spacingLeft=3;spacingRight=3;rotatable=0;labelPosition=right;points=[];portConstraint=eastwest;strokeColor=inherit;" vertex="1" parent="tuxZoWLmSPnHSPXejTyS-105">
          <mxGeometry y="26" width="350" height="8" as="geometry" />
        </mxCell>
        <mxCell id="tuxZoWLmSPnHSPXejTyS-107" value="+ visitDecorator(Python3Parser.DecoratorContext ctx): CodeElement" style="text;strokeColor=none;fillColor=none;align=left;verticalAlign=top;spacingLeft=4;spacingRight=4;overflow=hidden;rotatable=0;points=[[0,0.5],[1,0.5]];portConstraint=eastwest;whiteSpace=wrap;html=1;" vertex="1" parent="tuxZoWLmSPnHSPXejTyS-105">
          <mxGeometry y="34" width="350" height="56" as="geometry" />
        </mxCell>
        <mxCell id="tuxZoWLmSPnHSPXejTyS-108" value="" style="endArrow=block;dashed=0;endFill=0;endSize=12;html=1;rounded=0;exitX=0.5;exitY=0;exitDx=0;exitDy=0;entryX=0.5;entryY=1;entryDx=0;entryDy=0;" edge="1" source="tuxZoWLmSPnHSPXejTyS-105" target="tuxZoWLmSPnHSPXejTyS-103" parent="1">
          <mxGeometry width="160" relative="1" as="geometry">
            <mxPoint x="-2235" y="-860" as="sourcePoint" />
            <mxPoint x="-2065" y="-946" as="targetPoint" />
          </mxGeometry>
        </mxCell>
        <mxCell id="tuxZoWLmSPnHSPXejTyS-117" value="PythonVisitors" style="text;align=center;fontStyle=1;verticalAlign=middle;spacingLeft=3;spacingRight=3;strokeColor=none;rotatable=0;points=[[0,0.5],[1,0.5]];portConstraint=eastwest;html=1;" vertex="1" parent="1">
          <mxGeometry x="-2950" y="-1070" width="80" height="16" as="geometry" />
        </mxCell>
        <mxCell id="tuxZoWLmSPnHSPXejTyS-118" value="" style="endArrow=block;dashed=1;endFill=0;endSize=12;html=1;rounded=0;entryX=0;entryY=1;entryDx=0;entryDy=0;exitX=1;exitY=0;exitDx=0;exitDy=0;" edge="1" parent="1" source="tuxZoWLmSPnHSPXejTyS-119" target="tuxZoWLmSPnHSPXejTyS-54">
          <mxGeometry width="160" relative="1" as="geometry">
            <mxPoint x="-1340" y="410" as="sourcePoint" />
            <mxPoint x="-500" y="80" as="targetPoint" />
          </mxGeometry>
        </mxCell>
        <mxCell id="tuxZoWLmSPnHSPXejTyS-119" value="PythonModelMapper" style="swimlane;fontStyle=1;align=center;verticalAlign=top;childLayout=stackLayout;horizontal=1;startSize=26;horizontalStack=0;resizeParent=1;resizeParentMax=0;resizeLast=0;collapsible=1;marginBottom=0;whiteSpace=wrap;html=1;" vertex="1" parent="1">
          <mxGeometry x="-1510" y="430" width="200" height="70" as="geometry" />
        </mxCell>
        <mxCell id="tuxZoWLmSPnHSPXejTyS-121" value="" style="line;strokeWidth=1;fillColor=none;align=left;verticalAlign=middle;spacingTop=-1;spacingLeft=3;spacingRight=3;rotatable=0;labelPosition=right;points=[];portConstraint=eastwest;strokeColor=inherit;" vertex="1" parent="tuxZoWLmSPnHSPXejTyS-119">
          <mxGeometry y="26" width="200" height="8" as="geometry" />
        </mxCell>
        <mxCell id="tuxZoWLmSPnHSPXejTyS-122" value="&lt;div&gt;+map(List&amp;lt;CodeElement&amp;gt;): Model&lt;/div&gt;&lt;div&gt;...&lt;br&gt;&lt;/div&gt;" style="text;strokeColor=none;fillColor=none;align=left;verticalAlign=top;spacingLeft=4;spacingRight=4;overflow=hidden;rotatable=0;points=[[0,0.5],[1,0.5]];portConstraint=eastwest;whiteSpace=wrap;html=1;" vertex="1" parent="tuxZoWLmSPnHSPXejTyS-119">
          <mxGeometry y="34" width="200" height="36" as="geometry" />
        </mxCell>
        <mxCell id="tuxZoWLmSPnHSPXejTyS-123" value="" style="endArrow=open;endSize=12;dashed=1;html=1;rounded=0;exitX=0;exitY=0;exitDx=0;exitDy=0;entryX=0.5;entryY=1;entryDx=0;entryDy=0;entryPerimeter=0;" edge="1" parent="1" source="tuxZoWLmSPnHSPXejTyS-39" target="tuxZoWLmSPnHSPXejTyS-70">
          <mxGeometry width="160" relative="1" as="geometry">
            <mxPoint x="-2070" y="310" as="sourcePoint" />
            <mxPoint x="-1785" y="60" as="targetPoint" />
          </mxGeometry>
        </mxCell>
      </root>
    </mxGraphModel>
  </diagram>
</mxfile>
